<svg xmlns="http://www.w3.org/2000/svg"  viewBox="0 0 100 100" width="100px" height="100px"><path fill="#c7ede6" d="M87.215,56.71C88.35,54.555,89,52.105,89,49.5c0-6.621-4.159-12.257-10.001-14.478	C78.999,35.015,79,35.008,79,35c0-11.598-9.402-21-21-21c-9.784,0-17.981,6.701-20.313,15.757C36.211,29.272,34.638,29,33,29	c-7.692,0-14.023,5.793-14.89,13.252C12.906,43.353,9,47.969,9,53.5C9,59.851,14.149,65,20.5,65c0.177,0,0.352-0.012,0.526-0.022	C21.022,65.153,21,65.324,21,65.5C21,76.822,30.178,86,41.5,86c6.437,0,12.175-2.972,15.934-7.614C59.612,80.611,62.64,82,66,82	c4.65,0,8.674-2.65,10.666-6.518C77.718,75.817,78.837,76,80,76c6.075,0,11-4.925,11-11C91,61.689,89.53,58.727,87.215,56.71z"/><path fill="#fff" d="M15.5,51h-10C5.224,51,5,50.776,5,50.5S5.224,50,5.5,50h10c0.276,0,0.5,0.224,0.5,0.5	S15.777,51,15.5,51z M18.5,51h-1c-0.276,0-0.5-0.224-0.5-0.5s0.224-0.5,0.5-0.5h1c0.276,0,0.5,0.224,0.5,0.5S18.777,51,18.5,51z M23.491,53H14.5c-0.276,0-0.5-0.224-0.5-0.5s0.224-0.5,0.5-0.5h8.991c0.276,0,0.5,0.224,0.5,0.5S23.767,53,23.491,53z M12.5,53h-1	c-0.276,0-0.5-0.224-0.5-0.5s0.224-0.5,0.5-0.5h1c0.276,0,0.5,0.224,0.5,0.5S12.777,53,12.5,53z M9.5,53h-2	C7.224,53,7,52.776,7,52.5S7.224,52,7.5,52h2c0.276,0,0.5,0.224,0.5,0.5S9.777,53,9.5,53z M15.5,55h-2c-0.276,0-0.5-0.224-0.5-0.5	s0.224-0.5,0.5-0.5h2c0.276,0,0.5,0.224,0.5,0.5S15.776,55,15.5,55z M18.5,46c-0.177,0-0.823,0-1,0c-0.276,0-0.5,0.224-0.5,0.5	s0.224,0.5,0.5,0.5c0.177,0,0.823,0,1,0c0.276,0,0.5-0.224,0.5-0.5S18.776,46,18.5,46z M18.5,48c-0.177,0-4.823,0-5,0	c-0.276,0-0.5,0.224-0.5,0.5s0.224,0.5,0.5,0.5c0.177,0,4.823,0,5,0c0.276,0,0.5-0.224,0.5-0.5S18.776,48,18.5,48z M23.5,50	c-0.177,0-2.823,0-3,0c-0.276,0-0.5,0.224-0.5,0.5s0.224,0.5,0.5,0.5c0.177,0,2.823,0,3,0c0.276,0,0.5-0.224,0.5-0.5	S23.776,50,23.5,50z"/><path fill="#fff" d="M72.5,24h-10c-0.276,0-0.5-0.224-0.5-0.5s0.224-0.5,0.5-0.5h10c0.276,0,0.5,0.224,0.5,0.5 S72.776,24,72.5,24z M76.5,24h-2c-0.276,0-0.5-0.224-0.5-0.5s0.224-0.5,0.5-0.5h2c0.276,0,0.5,0.224,0.5,0.5S76.776,24,76.5,24z M81.5,26h-10c-0.276,0-0.5-0.224-0.5-0.5s0.224-0.5,0.5-0.5h10c0.276,0,0.5,0.224,0.5,0.5S81.777,26,81.5,26z M69.5,26h-1 c-0.276,0-0.5-0.224-0.5-0.5s0.224-0.5,0.5-0.5h1c0.276,0,0.5,0.224,0.5,0.5S69.776,26,69.5,26z M66.47,26H64.5 c-0.276,0-0.5-0.224-0.5-0.5s0.224-0.5,0.5-0.5h1.97c0.276,0,0.5,0.224,0.5,0.5S66.746,26,66.47,26z M75.5,22h-5 c-0.276,0-0.5-0.224-0.5-0.5s0.224-0.5,0.5-0.5h5c0.276,0,0.5,0.224,0.5,0.5S75.777,22,75.5,22z M72.5,28h-2 c-0.276,0-0.5-0.224-0.5-0.5s0.224-0.5,0.5-0.5h2c0.276,0,0.5,0.224,0.5,0.5S72.776,28,72.5,28z"/><path fill="#b2b1c2" d="M16.12,54.98c-0.745-1.855,5.215-5.035,34.005-12.855c10.125-2.75,34.875-9,36.075-5.715 C84,40.5,59.125,49.625,59.125,49.625l-37.125,7L16.12,54.98z"/><path fill="#472b29" d="M22,57.125c-0.045,0-0.091-0.006-0.135-0.019l-5.88-1.645c-0.149-0.042-0.271-0.151-0.329-0.295 c-0.146-0.365-0.123-0.761,0.067-1.144c0.874-1.757,5.63-4.601,34.271-12.38c16.04-4.357,35.424-8.832,36.676-5.404 c0.049,0.134,0.038,0.283-0.029,0.408c-2.265,4.208-26.32,13.072-27.344,13.447l-37.204,7.022 C22.062,57.122,22.031,57.125,22,57.125z M16.573,54.587l5.449,1.524l37.01-6.978c6.63-2.439,24.147-9.405,26.578-12.727 c-1.376-1.301-12.739,0.059-35.354,6.201c-21.579,5.861-32.582,9.741-33.637,11.861C16.597,54.513,16.582,54.552,16.573,54.587z"/><path fill="#88bbed" d="M52,27c-12.703,0-23,10.297-23,23s10.297,23,23,23s23-10.297,23-23S64.703,27,52,27z"/><circle cx="52" cy="50" r="19.25" fill="#98c4ee"/><circle cx="52" cy="50" r="15.5" fill="#a7cdef"/><circle cx="52" cy="50" r="11.75" fill="#b7d6f0"/><path fill="#c6dff1" d="M52,42c-4.418,0-8,3.582-8,8s3.582,8,8,8s8-3.582,8-8S56.418,42,52,42z"/><path fill="#472b29" d="M67.981,65.98c-8.812,8.812-23.15,8.812-31.961,0.001c-8.812-8.812-8.812-23.15,0-31.962 s23.149-8.811,31.961,0S76.793,57.169,67.981,65.98 M68.971,66.97c9.358-9.358,9.357-24.583,0-33.941 c-9.358-9.358-24.583-9.358-33.941,0s-9.357,24.585,0,33.942S59.613,76.328,68.971,66.97L68.971,66.97z"/><path fill="#fdfcef" d="M78.5,71.5c0,0,1.567,0,3.5,0s3.5-1.567,3.5-3.5c0-1.781-1.335-3.234-3.055-3.455 C82.473,64.366,82.5,64.187,82.5,64c0-1.933-1.567-3.5-3.5-3.5c-1.032,0-1.95,0.455-2.59,1.165 c-0.384-1.808-1.987-3.165-3.91-3.165c-2.209,0-4,1.791-4,4c0,0.191,0.03,0.374,0.056,0.558C68.128,62.714,67.592,62.5,67,62.5 c-1.228,0-2.245,0.887-2.455,2.055C64.366,64.527,64.187,64.5,64,64.5c-1.933,0-3.5,1.567-3.5,3.5s1.567,3.5,3.5,3.5s7.5,0,7.5,0 V72h7V71.5z"/><path fill="#472b29" d="M80.25,67C80.112,67,80,66.888,80,66.75c0-1.223,0.995-2.218,2.218-2.218 c0.034,0.009,0.737-0.001,1.244,0.136c0.133,0.036,0.212,0.173,0.176,0.306c-0.036,0.134-0.173,0.213-0.306,0.176 c-0.444-0.12-1.1-0.12-1.113-0.118c-0.948,0-1.719,0.771-1.719,1.718C80.5,66.888,80.388,67,80.25,67z M73.5,71 c-0.276,0-0.5,0.224-0.5,0.5s0.224,0.5,0.5,0.5c0.276,0,0.5-0.224,0.5-0.5S73.776,71,73.5,71z"/><path fill="#472b29" d="M82,72h-3.5c-0.276,0-0.5-0.224-0.5-0.5s0.224-0.5,0.5-0.5H82c1.654,0,3-1.346,3-3 c0-1.496-1.125-2.768-2.618-2.959c-0.134-0.018-0.255-0.088-0.336-0.196c-0.081-0.108-0.115-0.244-0.094-0.377 C81.975,64.314,82,64.16,82,64c0-1.654-1.346-3-3-3c-0.85,0-1.638,0.355-2.219,1c-0.125,0.139-0.321,0.198-0.5,0.148 c-0.182-0.049-0.321-0.195-0.36-0.379C75.58,60.165,74.141,59,72.5,59c-1.93,0-3.5,1.57-3.5,3.5c0,0.143,0.021,0.28,0.041,0.418 c0.029,0.203-0.063,0.438-0.242,0.54s-0.396,0.118-0.556-0.01C67.878,63.155,67.449,63,67,63c-0.966,0-1.792,0.691-1.963,1.644 c-0.048,0.267-0.296,0.446-0.569,0.405C64.314,65.025,64.16,65,64,65c-1.654,0-3,1.346-3,3s1.346,3,3,3h7.5 c0.276,0,0.5,0.224,0.5,0.5S71.776,72,71.5,72H64c-2.206,0-4-1.794-4-4s1.794-4,4-4c0.059,0,0.116,0.002,0.174,0.006 C64.588,62.82,65.711,62,67,62c0.349,0,0.689,0.061,1.011,0.18C68.176,59.847,70.126,58,72.5,58c1.831,0,3.466,1.127,4.153,2.774 C77.333,60.276,78.155,60,79,60c2.206,0,4,1.794,4,4c0,0.048-0.001,0.095-0.004,0.142C84.739,64.59,86,66.169,86,68 C86,70.206,84.206,72,82,72z"/><path fill="#472b29" d="M76.5,71c-0.159,0-0.841,0-1,0c-0.276,0-0.5,0.224-0.5,0.5s0.224,0.5,0.5,0.5c0.159,0,0.841,0,1,0 c0.276,0,0.5-0.224,0.5-0.5S76.776,71,76.5,71z"/><path fill="#ededeb" d="M88.44,44.08c-6.96,9.04-48.89,24.07-70.28,19.06l-2.04-8.16c17.4-0.48,56.55-11.67,70.08-18.57 L88.44,44.08z"/><path fill="#472b29" d="M28.105,64.656c-3.631,0-7.029-0.319-10.06-1.029c-0.183-0.042-0.325-0.184-0.371-0.366l-2.04-8.16 c-0.036-0.147-0.005-0.303,0.087-0.423s0.233-0.193,0.385-0.198c16.79-0.463,55.976-11.432,69.866-18.515 c0.133-0.068,0.289-0.072,0.426-0.014c0.137,0.059,0.24,0.176,0.281,0.319l2.239,7.67c0.045,0.153,0.014,0.319-0.083,0.445 C82.985,51.985,50.978,64.656,28.105,64.656z M18.571,62.721c21.728,4.869,62.222-10.098,69.315-18.75l-1.998-6.846 C71.644,44.169,33.76,54.757,16.755,55.458L18.571,62.721z"/><path fill="#472b29" d="M20.4,63.83c-0.112,0-0.214-0.076-0.242-0.189l-2.181-8.71c-0.034-0.134,0.048-0.27,0.182-0.303	c0.139-0.036,0.27,0.048,0.303,0.182l2.181,8.71c0.034,0.134-0.048,0.27-0.182,0.303C20.44,63.828,20.42,63.83,20.4,63.83z"/><path fill="#472b29" d="M26.23,64.36c-0.11,0-0.212-0.074-0.241-0.186l-2.61-9.79c-0.036-0.133,0.043-0.271,0.177-0.306	c0.132-0.033,0.271,0.044,0.306,0.177l2.61,9.79c0.036,0.133-0.043,0.271-0.177,0.306C26.273,64.357,26.252,64.36,26.23,64.36z"/><path fill="#472b29" d="M36.03,63.93c-0.111,0-0.213-0.075-0.242-0.188l-2.83-10.97c-0.034-0.134,0.046-0.27,0.18-0.305	c0.133-0.034,0.27,0.046,0.305,0.18l2.83,10.97c0.034,0.134-0.046,0.27-0.18,0.305C36.072,63.928,36.051,63.93,36.03,63.93z"/><path fill="#472b29" d="M74.45,53.29c-0.109,0-0.209-0.072-0.24-0.182l-3.03-10.69c-0.038-0.133,0.039-0.271,0.172-0.309	c0.141-0.037,0.271,0.04,0.309,0.172l3.03,10.69c0.038,0.133-0.039,0.271-0.172,0.309C74.495,53.287,74.473,53.29,74.45,53.29z"/><path fill="#472b29" d="M82.82,48.91c-0.108,0-0.208-0.071-0.24-0.18l-2.771-9.5c-0.038-0.132,0.038-0.271,0.17-0.31	c0.131-0.036,0.271,0.037,0.311,0.17l2.771,9.5c0.038,0.132-0.038,0.271-0.17,0.31C82.867,48.907,82.844,48.91,82.82,48.91z"/><path fill="#472b29" d="M87.16,45.7c-0.109,0-0.21-0.072-0.24-0.182l-2.351-8.36c-0.038-0.133,0.04-0.271,0.173-0.309	c0.134-0.036,0.271,0.041,0.308,0.173l2.351,8.36c0.038,0.133-0.04,0.271-0.173,0.309C87.205,45.697,87.183,45.7,87.16,45.7z"/><g><path fill="#bd1f79" d="M41.445,58.668l0.657,2.761l-1.35,0.321l-1.937-8.138l2.233-0.532 c0.428-0.102,0.834-0.077,1.218,0.074c0.384,0.15,0.716,0.416,0.997,0.796c0.282,0.38,0.486,0.838,0.614,1.375 c0.188,0.794,0.145,1.475-0.134,2.043c-0.277,0.568-0.757,0.933-1.438,1.095L41.445,58.668z M41.085,57.153l0.884-0.21 c0.262-0.062,0.438-0.205,0.53-0.427s0.097-0.507,0.014-0.854c-0.09-0.38-0.233-0.667-0.428-0.861 c-0.195-0.193-0.415-0.263-0.659-0.209l-0.899,0.214L41.085,57.153z"/><path fill="#bd1f79" d="M46.799,58.683l2.339-0.596l0.383,1.503l-3.684,0.938l-2.064-8.106l1.345-0.342L46.799,58.683z"/><path fill="#bd1f79" d="M52.897,57.063l-1.834,0.498l0.089,1.595l-1.431,0.388l-0.152-8.625l1.259-0.341l4.24,7.518 l-1.438,0.39L52.897,57.063z M50.977,55.971l1.193-0.324l-1.357-2.638L50.977,55.971z"/><path fill="#bd1f79" d="M60.313,56.536l-1.324,0.383l-3.404-4.435l1.445,5l-1.332,0.385l-2.323-8.036l1.332-0.385l3.4,4.436 l-1.445-5l1.329-0.384L60.313,56.536z"/><path fill="#bd1f79" d="M63.821,51.686l-2.086,0.639l0.586,1.912l2.463-0.754l0.454,1.483l-3.789,1.16L59,48.126 l3.797-1.163l0.456,1.489l-2.471,0.757l0.516,1.687l2.086-0.639L63.821,51.686z"/><path fill="#bd1f79" d="M68.044,46.938l-1.643,0.532l2.099,6.477l-1.319,0.428l-2.099-6.477l-1.613,0.522l-0.479-1.481 l4.574-1.482L68.044,46.938z"/></g><polygon fill="#bd1f79" points="77.013,44 78,45.5 79.5,45.375 78.5,46.5 79.125,47.75 77.75,47.375 76.375,48.75 76.625,47 75,46.25 76.875,45.75"/><polygon fill="#bd1f79" points="29.125,56.75 30,58.375 32,58 30.5,59.375 31.375,61 29.625,60 28.5,61 28.462,59.576 27.375,58.875 28.75,58.625"/><g><polygon fill="#472b29" points="26.875,50.375 27.25,51 28.875,50.625 29.125,48.375 28.5,46.625 28.5,50"/><path fill="#472b29" d="M27.25,51.25c-0.087,0-0.169-0.045-0.215-0.122l-0.375-0.625c-0.041-0.068-0.047-0.152-0.016-0.226 s0.097-0.128,0.174-0.146l1.432-0.33v-3.176c0-0.122,0.088-0.226,0.207-0.246c0.124-0.026,0.237,0.047,0.278,0.162l0.625,1.75 c0.013,0.036,0.018,0.074,0.013,0.112l-0.25,2.25c-0.012,0.105-0.089,0.192-0.191,0.216l-1.625,0.375 C27.287,51.248,27.269,51.25,27.25,51.25z M27.267,50.542l0.104,0.174l1.275-0.294l0.026-0.241 c-0.031,0.03-0.071,0.053-0.116,0.063L27.267,50.542z M28.75,48.068v1.418l0.12-1.082L28.75,48.068z"/><polygon fill="#472b29" points="24,51 24.375,51.625 26.5,51.125 25,46 25.75,50.625"/><path fill="#472b29" d="M24.375,51.875c-0.087,0-0.169-0.045-0.215-0.122l-0.375-0.625 c-0.041-0.069-0.047-0.154-0.015-0.228s0.099-0.128,0.177-0.145l1.518-0.325l-0.712-4.39c-0.021-0.13,0.063-0.255,0.191-0.284 c0.13-0.029,0.259,0.047,0.296,0.173l1.5,5.125c0.019,0.066,0.011,0.137-0.024,0.196c-0.034,0.059-0.092,0.102-0.158,0.117 l-2.125,0.5C24.413,51.873,24.394,51.875,24.375,51.875z M24.395,51.171l0.101,0.168l1.69-0.398l-0.294-1.006l0.105,0.649 c0.021,0.131-0.064,0.256-0.194,0.285L24.395,51.171z"/><polygon fill="#472b29" points="63.5,31.25 62.125,31.75 64.125,41.375 65,41.5 67.25,40.625 67.125,40 65.375,40.625"/><path fill="#472b29" d="M65,41.75c-0.012,0-0.023-0.001-0.035-0.002l-0.875-0.125c-0.104-0.015-0.188-0.094-0.21-0.197 l-2-9.625c-0.025-0.122,0.043-0.243,0.16-0.286l1.375-0.5c0.065-0.025,0.143-0.02,0.207,0.017 c0.064,0.036,0.108,0.097,0.123,0.169l1.818,9.091l1.478-0.528c0.068-0.025,0.144-0.018,0.207,0.018 c0.063,0.036,0.107,0.098,0.122,0.169l0.125,0.625c0.023,0.119-0.041,0.238-0.154,0.282l-2.25,0.875 C65.062,41.744,65.031,41.75,65,41.75z M64.334,41.152l0.637,0.091l1.993-0.775l-0.027-0.136l-1.478,0.528 c-0.069,0.024-0.145,0.018-0.207-0.018c-0.063-0.036-0.107-0.098-0.122-0.169l-1.818-9.089l-0.897,0.327L64.334,41.152z"/><polygon fill="#fcc938" points="24,51 22.625,41.5 25,41 27,46.5 26.75,40.625 28.75,40.25 31.25,49.375 29.5,49.75 28.375,45 28.5,50 26.875,50.375 25,46 25.75,50.625"/><path fill="#472b29" d="M24,51.25c-0.051,0-0.101-0.016-0.143-0.045c-0.057-0.04-0.095-0.101-0.104-0.169l-1.375-9.5 c-0.02-0.13,0.066-0.253,0.195-0.28l2.375-0.5c0.125-0.027,0.244,0.042,0.287,0.159l1.446,3.978L26.5,40.636 c-0.005-0.125,0.082-0.233,0.204-0.256l2-0.375c0.134-0.025,0.253,0.055,0.287,0.18l2.5,9.125 c0.019,0.066,0.008,0.137-0.027,0.196c-0.036,0.059-0.095,0.1-0.161,0.115l-1.75,0.375c-0.132,0.024-0.265-0.055-0.296-0.187 l-0.572-2.415l0.065,2.601c0.003,0.119-0.078,0.223-0.193,0.25l-1.625,0.375c-0.12,0.028-0.238-0.034-0.286-0.145l-1.072-2.502 l0.424,2.613c0.021,0.131-0.064,0.256-0.194,0.285l-1.75,0.375C24.035,51.248,24.018,51.25,24,51.25z M22.906,41.696l1.303,9.003 l1.256-0.27l-0.712-4.39c-0.02-0.125,0.056-0.245,0.178-0.28c0.116-0.033,0.249,0.025,0.299,0.142l1.793,4.183l1.223-0.282 l-0.12-4.796c-0.003-0.128,0.091-0.238,0.218-0.254c0.123-0.019,0.245,0.066,0.275,0.19l1.068,4.512l1.253-0.268l-2.37-8.648 l-1.561,0.292l0.241,5.659c0.005,0.124-0.08,0.232-0.201,0.256c-0.125,0.028-0.241-0.044-0.284-0.16l-1.926-5.296L22.906,41.696z"/><path fill="#fcc938" d="M36.903,43.472c-0.676-2.811-2.486-4.751-4.044-4.333c-1.558,0.418-2.273,3.035-1.598,5.846 c0.676,2.811,2.486,4.751,4.044,4.333C36.863,48.901,37.578,46.283,36.903,43.472z M34.694,46.776 c-0.292,0.078-0.802-0.999-1.141-2.405c-0.338-1.407-0.375-2.611-0.084-2.689c0.292-0.078,0.802,0.999,1.141,2.406 C34.948,45.494,34.986,46.698,34.694,46.776z"/><path fill="#472b29" d="M34.875,49.625c-0.402,0-0.818-0.123-1.226-0.365c-1.166-0.693-2.174-2.309-2.632-4.215 c-0.718-2.987,0.062-5.687,1.776-6.146c0.548-0.148,1.143-0.043,1.72,0.3c1.166,0.693,2.174,2.309,2.632,4.215 c0.718,2.987-0.062,5.687-1.776,6.146C35.208,49.603,35.043,49.625,34.875,49.625z M33.293,39.332 c-0.125,0-0.249,0.016-0.37,0.049c-1.401,0.376-2.052,2.916-1.419,5.546c0.428,1.781,1.348,3.276,2.4,3.903 c0.466,0.276,0.915,0.362,1.336,0.247c1.401-0.376,2.052-2.916,1.419-5.546l0,0c-0.428-1.781-1.348-3.276-2.4-3.903 C33.927,39.431,33.604,39.332,33.293,39.332z M34.662,47.03c-0.062,0-0.136-0.015-0.217-0.063 c-0.451-0.268-0.894-1.534-1.136-2.537c-0.157-0.653-0.613-2.799,0.096-2.989c0.071-0.017,0.185-0.026,0.313,0.052 c0.451,0.268,0.894,1.534,1.135,2.537c0.157,0.653,0.613,2.799-0.096,2.989C34.731,47.024,34.699,47.03,34.662,47.03z M33.551,42.007c-0.059,0.304-0.042,1.111,0.245,2.305c0.283,1.177,0.629,1.895,0.816,2.138c0.059-0.304,0.042-1.111-0.245-2.304 C34.084,42.968,33.738,42.25,33.551,42.007z"/><polygon fill="#fcc938" points="36.375,38.75 38.5,38.125 41,45 40.125,37.75 42.375,37.125 42.625,46.875 40.25,47.5"/><path fill="#472b29" d="M40.25,47.75c-0.097,0-0.188-0.057-0.229-0.149l-3.875-8.75c-0.029-0.065-0.028-0.141,0.002-0.206 s0.087-0.115,0.156-0.135l2.125-0.625c0.126-0.039,0.26,0.03,0.306,0.154l1.756,4.829l-0.614-5.089 c-0.015-0.123,0.062-0.238,0.181-0.271l2.25-0.625c0.075-0.022,0.154-0.007,0.216,0.04c0.062,0.046,0.1,0.118,0.102,0.195 l0.25,9.75c0.003,0.116-0.074,0.219-0.187,0.248l-2.375,0.625C40.292,47.748,40.271,47.75,40.25,47.75z M36.719,38.909 l3.674,8.295l1.978-0.521l-0.237-9.232l-1.733,0.482l0.849,7.037c0.016,0.126-0.066,0.244-0.19,0.273 c-0.118,0.029-0.249-0.038-0.293-0.158l-2.419-6.654L36.719,38.909z"/><rect width="2" height="9.55" x="44.767" y="36.362" fill="#fcc938" transform="rotate(-15.421 45.772 41.14)"/><path fill="#472b29" d="M46.072,46.255c-0.109,0-0.21-0.073-0.241-0.184l-2.539-9.206 c-0.036-0.133,0.042-0.271,0.175-0.308l1.928-0.532c0.135-0.037,0.271,0.042,0.308,0.175l2.54,9.206 c0.018,0.064,0.009,0.132-0.023,0.19c-0.033,0.058-0.087,0.1-0.151,0.118l-1.929,0.532C46.116,46.252,46.094,46.255,46.072,46.255 z M43.841,36.974l2.406,8.724l1.446-0.398l-2.407-8.724L43.841,36.974z"/><polygon fill="#fcc938" points="63.803,40.987 61.578,34.19 62.874,33.766 62.209,31.736 60.484,32.301 58.922,32.812 58.922,32.812 57.401,33.31 58.066,35.34 59.587,34.842 61.812,41.639"/><path fill="#472b29" d="M61.812,41.889c-0.039,0-0.077-0.009-0.113-0.027c-0.059-0.03-0.104-0.083-0.124-0.146 l-2.148-6.559l-1.282,0.42c-0.135,0.044-0.272-0.029-0.315-0.16l-0.665-2.03c-0.021-0.063-0.016-0.131,0.015-0.19 c0.029-0.059,0.082-0.104,0.145-0.125l4.808-1.574c0.063-0.02,0.134-0.014,0.191,0.015c0.059,0.03,0.104,0.083,0.124,0.146 l0.664,2.03c0.043,0.131-0.028,0.272-0.159,0.315l-1.058,0.346l2.146,6.559c0.043,0.131-0.028,0.272-0.159,0.315l-1.99,0.652 C61.865,41.885,61.839,41.889,61.812,41.889z M59.587,34.592c0.105,0,0.203,0.067,0.237,0.172l2.148,6.559l1.515-0.497 l-2.146-6.559c-0.043-0.131,0.028-0.272,0.159-0.315l1.058-0.346l-0.509-1.555l-4.332,1.418l0.51,1.555l1.282-0.42 C59.535,34.596,59.562,34.592,59.587,34.592z"/><path fill="#fcc938" d="M56.375,33.625l0.75,2.125c-0.75-0.375-2.375-0.5-2.375,0.625c0,1.375,4.5,1.5,4.5,4.125 c0,2.125-2.125,3.125-4.25,3c-0.375-0.875-0.75-1.875-0.75-1.875s2.875,0.75,2.875-1.125c0-1.25-4.5-1.25-4.5-4 C52.625,34.5,54.375,33.5,56.375,33.625z"/><path fill="#472b29" d="M55.353,43.76c-0.122,0-0.244-0.003-0.367-0.011c-0.095-0.005-0.178-0.064-0.215-0.151 c-0.373-0.871-0.751-1.876-0.755-1.886c-0.032-0.087-0.014-0.186,0.049-0.255c0.062-0.069,0.16-0.098,0.248-0.075 c0.431,0.111,1.671,0.303,2.243-0.138c0.215-0.167,0.319-0.41,0.319-0.745c0-0.336-0.735-0.639-1.446-0.932 c-1.289-0.531-3.054-1.258-3.054-3.068c0-0.866,0.311-1.616,0.898-2.168c0.73-0.686,1.858-1.035,3.117-0.956 c0.1,0.006,0.187,0.072,0.22,0.167l0.75,2.125c0.034,0.096,0.007,0.203-0.07,0.271c-0.075,0.066-0.187,0.081-0.276,0.036 c-0.498-0.25-1.345-0.347-1.76-0.089C55.081,35.992,55,36.147,55,36.375c0,0.416,0.761,0.758,1.566,1.121 c1.307,0.588,2.934,1.32,2.934,3.004c0,0.841-0.315,1.583-0.913,2.146C57.836,43.355,56.646,43.76,55.353,43.76z M55.169,43.257 c1.246,0.033,2.38-0.32,3.075-0.975C58.746,41.81,59,41.21,59,40.5c0-1.361-1.402-1.992-2.639-2.548 c-0.999-0.45-1.861-0.838-1.861-1.577c0-0.4,0.17-0.717,0.491-0.916c0.472-0.291,1.176-0.26,1.724-0.121l-0.52-1.472 c-1.053-0.026-1.981,0.267-2.579,0.83c-0.492,0.462-0.741,1.069-0.741,1.804c0,1.475,1.458,2.076,2.744,2.605 c0.942,0.389,1.756,0.724,1.756,1.395c0,0.493-0.173,0.877-0.514,1.141c-0.612,0.473-1.628,0.408-2.216,0.317 C54.775,42.294,54.97,42.787,55.169,43.257z"/><path fill="#fcc938" d="M65.625,30.5l5.125,8.375l-2,0.625l-1-1.875l-1.125,0.25l0.5,2.125l-1.75,0.625L63.5,31.25 L65.625,30.5z"/><path fill="#472b29" d="M65.375,40.875c-0.043,0-0.085-0.011-0.123-0.032c-0.063-0.036-0.107-0.098-0.122-0.169 l-1.875-9.375c-0.024-0.122,0.045-0.243,0.162-0.285l2.125-0.75c0.11-0.041,0.234,0.004,0.296,0.105l5.125,8.375 c0.041,0.065,0.048,0.146,0.021,0.218c-0.027,0.072-0.086,0.128-0.16,0.151l-2,0.625c-0.114,0.033-0.238-0.016-0.295-0.121 l-0.91-1.708l-0.692,0.154l0.441,1.879c0.029,0.124-0.039,0.25-0.159,0.292l-1.75,0.625C65.432,40.87,65.403,40.875,65.375,40.875 z M63.788,31.414l1.775,8.879l1.267-0.453l-0.448-1.908c-0.016-0.065-0.004-0.133,0.031-0.19c0.036-0.057,0.093-0.097,0.157-0.111 l1.125-0.25c0.114-0.022,0.223,0.028,0.275,0.126l0.902,1.692l1.496-0.468l-4.852-7.929L63.788,31.414z"/><path fill="#fcc938" d="M71,28.875c3,0,3.125,3.375,2.25,4.375c0.375,0,1,0.375,1.375,1.125c0.25,0.5,1,2,1.875,2.625 c0,0-1.25,0.5-2,0.75c-0.75-0.375-1.5-3.125-2.5-3.125L73.375,38L71.5,38.625L67.875,29.5C67.875,29.5,70.375,28.875,71,28.875z"/><path fill="#472b29" d="M71.5,38.875c-0.1,0-0.193-0.06-0.232-0.158l-3.625-9.125c-0.026-0.067-0.022-0.142,0.01-0.207 c0.033-0.064,0.092-0.111,0.162-0.128c0.259-0.064,2.548-0.632,3.186-0.632c1.254,0,2.203,0.57,2.673,1.606 c0.456,1.006,0.353,2.158-0.014,2.855c0.416,0.165,0.882,0.562,1.189,1.177c0.24,0.481,0.973,1.944,1.797,2.533 c0.074,0.053,0.113,0.143,0.103,0.233s-0.07,0.168-0.155,0.202c-0.051,0.021-1.266,0.506-2.014,0.755 c-0.062,0.021-0.133,0.017-0.19-0.014c-0.39-0.195-0.712-0.789-1.084-1.477c-0.241-0.445-0.519-0.957-0.796-1.285l1.098,2.693 c0.026,0.064,0.024,0.136-0.004,0.199c-0.029,0.063-0.083,0.111-0.148,0.133l-1.875,0.625 C71.553,38.871,71.526,38.875,71.5,38.875z M68.213,29.674l3.433,8.639l1.397-0.466l-1.274-3.128 c-0.031-0.077-0.022-0.165,0.024-0.234c0.046-0.069,0.124-0.11,0.207-0.11c0.724,0,1.242,0.958,1.744,1.884 c0.261,0.482,0.553,1.021,0.79,1.216c0.469-0.161,1.089-0.399,1.484-0.554c-0.772-0.746-1.395-1.989-1.617-2.434 c-0.337-0.673-0.886-0.987-1.151-0.987c-0.098,0-0.188-0.057-0.228-0.146c-0.041-0.089-0.025-0.194,0.039-0.268 c0.423-0.483,0.591-1.689,0.156-2.647c-0.272-0.599-0.878-1.313-2.218-1.313C70.568,29.125,69.035,29.475,68.213,29.674z"/><polygon fill="#472b29" points="25,41 26.75,41.25 27,46.5"/><path fill="#472b29" d="M27,46.75c-0.104,0-0.198-0.064-0.235-0.165l-2-5.5c-0.029-0.083-0.014-0.175,0.041-0.243 c0.056-0.068,0.146-0.1,0.229-0.09l1.75,0.25c0.119,0.017,0.209,0.116,0.215,0.236l0.25,5.25c0.006,0.123-0.08,0.232-0.201,0.257 C27.032,46.749,27.017,46.75,27,46.75z M25.378,41.307l1.294,3.56l-0.162-3.398L25.378,41.307z"/><polygon fill="#472b29" points="28.75,40.25 30.125,40 32.25,49.25 31.75,50 29.625,50.5 29.375,49.75 31.25,49.375"/><path fill="#472b29" d="M29.625,50.75c-0.105,0-0.202-0.067-0.237-0.171l-0.25-0.75c-0.022-0.068-0.015-0.143,0.021-0.205 c0.035-0.062,0.097-0.105,0.167-0.12l1.612-0.322l-2.43-8.867c-0.019-0.067-0.008-0.14,0.029-0.199 c0.038-0.059,0.099-0.1,0.167-0.113l1.375-0.25c0.14-0.021,0.259,0.06,0.288,0.19l2.125,9.25c0.016,0.067,0.003,0.138-0.035,0.195 l-0.5,0.75c-0.035,0.053-0.089,0.09-0.15,0.104l-2.125,0.5C29.663,50.748,29.644,50.75,29.625,50.75z M29.702,49.939l0.088,0.265 l1.807-0.425l0.386-0.578l-2.048-8.913l-0.871,0.159l2.428,8.862c0.019,0.067,0.008,0.138-0.028,0.197s-0.096,0.1-0.164,0.114 L29.702,49.939z"/><g><path fill="#472b29" d="M32.859,39.139c1.141-0.273,3.766-0.405,5.016,3.689s-0.641,6.509-2.57,6.49 c2.445-1.075,2.126-4.278,1.598-5.846C36.375,41.904,35.625,39.131,32.859,39.139z"/><path fill="#472b29" d="M35.327,49.568c-0.116,0.001-0.242-0.076-0.268-0.2c-0.023-0.116,0.037-0.232,0.145-0.279 c2.292-1.008,1.958-4.062,1.461-5.538l-0.092-0.277c-0.511-1.548-1.282-3.886-3.703-3.886c-0.004,0-0.007,0-0.011,0h-0.001 c-0.127,0-0.233-0.095-0.248-0.22c-0.016-0.126,0.066-0.244,0.19-0.273c1.16-0.276,3.997-0.453,5.313,3.859 c0.68,2.227,0.507,4.256-0.475,5.568C37.047,49.116,36.205,49.568,35.327,49.568z M34.72,39.384 c1.374,0.842,1.945,2.574,2.328,3.734l0.092,0.274c0.437,1.297,0.743,3.713-0.489,5.221c0.216-0.159,0.415-0.357,0.589-0.59 c0.885-1.183,1.029-3.05,0.396-5.122C36.93,40.587,35.788,39.674,34.72,39.384z"/></g><g><path fill="#472b29" d="M49.702,45.13l0.173,0.745l5.125-1.5C56.125,44.5,60.375,43.75,59.25,40 c0.125,1.875-0.875,3.625-4.25,3.5c-0.625-1.25-0.75-1.875-0.75-1.875C55.5,41.75,57.125,42,57.125,40.5s-4.5-1.375-4.5-4 c0-2.25,2.75-2.875,3.75-2.875c-1.25-0.125-4.75,0.625-4.75,2.75c0,3,4.202,3.008,4.375,3.875c0.25,1.25-2.875,1-2.875,1 l0.311,0.94l0.49,1.774L49.702,45.13z"/><path fill="#472b29" d="M49.875,46.125c-0.044,0-0.088-0.012-0.126-0.034c-0.06-0.035-0.102-0.092-0.117-0.159 l-0.174-0.745c-0.031-0.13,0.047-0.262,0.177-0.298l3.983-1.099l-0.424-1.534l-0.307-0.928c-0.026-0.08-0.011-0.167,0.041-0.233 c0.051-0.066,0.143-0.104,0.216-0.095c0.788,0.063,2.173,0.008,2.538-0.404c0.074-0.084,0.097-0.176,0.072-0.298 c-0.032-0.158-0.647-0.387-1.098-0.554c-1.307-0.485-3.282-1.218-3.282-3.37c0-0.632,0.27-1.197,0.802-1.678 c1.116-1.01,3.203-1.428,4.223-1.32c0.133,0.013,0.231,0.128,0.226,0.261c-0.007,0.133-0.117,0.238-0.25,0.238 c-0.694,0-3.5,0.467-3.5,2.625c0,1.328,1.361,1.89,2.562,2.386c0.997,0.412,1.938,0.801,1.938,1.614 c0,0.461-0.14,0.821-0.415,1.07c-0.548,0.493-1.492,0.429-2.367,0.342c0.093,0.278,0.264,0.727,0.564,1.343 c1.438,0.034,2.483-0.292,3.128-0.957c0.671-0.69,0.76-1.622,0.716-2.281c-0.009-0.127,0.079-0.24,0.204-0.263 c0.134-0.019,0.248,0.053,0.284,0.174c0.379,1.262,0.219,2.324-0.475,3.156c-1.13,1.356-3.267,1.601-3.99,1.544l-5.079,1.486 C49.922,46.122,49.898,46.125,49.875,46.125z M49.999,45.307l0.06,0.254l4.871-1.426c0.031-0.009,0.066-0.012,0.098-0.009 c0.58,0.067,2.59-0.146,3.603-1.363c0.126-0.15,0.23-0.311,0.313-0.48c-0.09,0.129-0.189,0.25-0.299,0.363 c-0.771,0.793-2.002,1.17-3.653,1.104c-0.092-0.003-0.174-0.057-0.215-0.138c-0.633-1.266-0.767-1.911-0.771-1.938 c-0.011-0.053-0.004-0.107,0.019-0.155c-0.204,0.007-0.393,0.005-0.547,0l0.196,0.593l0.494,1.787 c0.018,0.064,0.009,0.132-0.023,0.19c-0.033,0.058-0.087,0.1-0.151,0.118L49.999,45.307z M54.889,41.438 c0.692,0.063,1.39,0.075,1.737-0.239c0.167-0.151,0.249-0.38,0.249-0.698c0-0.479-0.791-0.806-1.629-1.152 c-1.279-0.528-2.871-1.186-2.871-2.848c0-0.809,0.329-1.433,0.812-1.902c-0.249,0.136-0.479,0.292-0.675,0.469 c-0.423,0.383-0.637,0.822-0.637,1.308c0,1.804,1.709,2.438,2.956,2.901c0.771,0.286,1.327,0.493,1.414,0.925 c0.055,0.276-0.011,0.528-0.189,0.729C55.811,41.206,55.363,41.357,54.889,41.438z"/></g><g><polygon fill="#472b29" points="42.375,37.125 43.125,36.875 43.5,46.75 43,47.625 40.5,48.25 40.25,47.5 42.625,46.875"/><path fill="#472b29" d="M40.5,48.5c-0.105,0-0.202-0.067-0.237-0.171l-0.25-0.75c-0.021-0.065-0.016-0.137,0.018-0.198 c0.033-0.061,0.089-0.105,0.156-0.123l2.184-0.575l-0.245-9.552c-0.003-0.11,0.066-0.208,0.171-0.244l0.75-0.25 c0.073-0.024,0.155-0.013,0.222,0.032c0.064,0.045,0.104,0.118,0.107,0.196l0.375,9.875c0.002,0.046-0.01,0.093-0.033,0.133 l-0.5,0.875c-0.033,0.059-0.09,0.102-0.156,0.119l-2.5,0.625C40.54,48.498,40.52,48.5,40.5,48.5z M40.571,47.674l0.093,0.277 l2.172-0.543l0.411-0.72l-0.359-9.47l-0.258,0.086l0.245,9.565c0.003,0.116-0.074,0.219-0.187,0.248L40.571,47.674z"/></g><g><polygon fill="#472b29" points="38.5,38.125 39.375,37.875 41,45"/><path fill="#472b29" d="M41,45.25c-0.103,0-0.198-0.063-0.235-0.165l-2.5-6.875c-0.023-0.065-0.019-0.137,0.013-0.199 c0.031-0.062,0.087-0.107,0.154-0.126l0.875-0.25c0.064-0.019,0.136-0.01,0.195,0.025s0.102,0.093,0.117,0.16l1.625,7.125 c0.029,0.129-0.047,0.258-0.174,0.295C41.047,45.247,41.023,45.25,41,45.25z M38.826,38.292l1.038,2.855l-0.675-2.958 L38.826,38.292z"/></g><g><polygon fill="#472b29" points="45.461,36.268 46.375,36 49,45.375 48.625,46.125 46.25,46.75 46.073,46.006 48.001,45.474"/><path fill="#472b29" d="M46.25,47c-0.045,0-0.089-0.012-0.129-0.036c-0.058-0.035-0.099-0.091-0.114-0.156l-0.178-0.745 c-0.031-0.131,0.047-0.263,0.177-0.299l1.688-0.465l-2.474-8.965c-0.036-0.131,0.04-0.268,0.171-0.306l0.914-0.268 c0.066-0.019,0.134-0.011,0.191,0.021c0.059,0.033,0.102,0.087,0.12,0.151l2.625,9.375c0.017,0.06,0.01,0.124-0.018,0.179 l-0.375,0.75c-0.032,0.064-0.091,0.112-0.16,0.13l-2.375,0.625C46.293,46.997,46.271,47,46.25,47z M46.371,46.182l0.062,0.261 l2.019-0.531l0.281-0.562l-2.531-9.039l-0.435,0.127l2.475,8.969c0.018,0.064,0.009,0.132-0.023,0.19 c-0.033,0.058-0.087,0.1-0.151,0.118L46.371,46.182z"/></g><g><polygon fill="#472b29" points="50.125,37.5 50.5,38.875 50.108,39.082 49.683,37.54"/><path fill="#472b29" d="M50.108,39.332c-0.033,0-0.067-0.007-0.099-0.021c-0.07-0.03-0.122-0.09-0.143-0.163l-0.426-1.542 c-0.02-0.071-0.007-0.148,0.036-0.208c0.042-0.061,0.108-0.1,0.183-0.107l0.442-0.04c0.127-0.007,0.231,0.066,0.264,0.183 l0.375,1.375c0.031,0.113-0.021,0.232-0.124,0.287l-0.392,0.207C50.188,39.322,50.148,39.332,50.108,39.332z"/></g><g><polygon fill="#472b29" points="51.125,40.75 51.625,42.625 51.14,42.823 50.604,40.881"/><path fill="#472b29" d="M51.141,43.073c-0.038,0-0.075-0.009-0.11-0.025c-0.064-0.032-0.111-0.089-0.131-0.158 l-0.536-1.942c-0.018-0.065-0.009-0.134,0.025-0.192s0.09-0.1,0.155-0.117l0.521-0.131c0.139-0.03,0.268,0.047,0.302,0.178 l0.5,1.875c0.033,0.122-0.03,0.248-0.146,0.296l-0.484,0.198C51.205,43.067,51.173,43.073,51.141,43.073z M50.913,41.061 l0.394,1.424l0.021-0.008l-0.38-1.424L50.913,41.061z"/></g><g><path fill="#472b29" d="M57.401,33.31L56.625,34c0,0,0.375,1.75,0.5,1.75s0.941-0.41,0.941-0.41l0.434-0.09L61,42.5h1 l2-0.875l-0.197-0.638l-1.991,0.652l-2.225-6.797l-1.521,0.498L57.401,33.31z"/><path fill="#472b29" d="M62,42.75h-1c-0.106,0-0.201-0.068-0.236-0.168l-2.429-7.042l-0.186,0.039 C57.307,36,57.18,36,57.125,36c-0.211,0-0.327,0-0.744-1.948c-0.02-0.088,0.011-0.179,0.078-0.239l0.776-0.69 c0.062-0.056,0.148-0.077,0.231-0.054c0.081,0.022,0.146,0.083,0.172,0.164l0.588,1.792l1.282-0.42 c0.137-0.042,0.273,0.03,0.315,0.16l2.148,6.559l1.752-0.575c0.064-0.021,0.134-0.015,0.193,0.016s0.104,0.084,0.124,0.148 l0.197,0.638c0.037,0.122-0.022,0.252-0.139,0.303l-2,0.875C62.068,42.743,62.034,42.75,62,42.75z M61.179,42.25h0.769 l1.748-0.765l-0.057-0.182l-1.748,0.573c-0.062,0.021-0.13,0.015-0.191-0.015c-0.059-0.03-0.104-0.083-0.124-0.146l-2.148-6.559 l-0.624,0.204L61.179,42.25z M56.9,34.09c0.116,0.526,0.258,1.096,0.348,1.361c0.124-0.054,0.319-0.145,0.514-0.239l-0.479-1.462 L56.9,34.09z"/></g><g><polygon fill="#472b29" points="65.5,33.375 66.125,36.375 67.125,36"/><path fill="#472b29" d="M66.125,36.625c-0.042,0-0.083-0.01-0.12-0.031c-0.064-0.036-0.109-0.097-0.125-0.168l-0.625-3 c-0.024-0.119,0.04-0.238,0.152-0.283c0.113-0.042,0.241-0.002,0.306,0.101l1.625,2.625c0.039,0.063,0.048,0.141,0.023,0.212 c-0.023,0.071-0.078,0.127-0.148,0.153l-1,0.375C66.185,36.62,66.154,36.625,66.125,36.625z M66.034,34.713l0.276,1.326 l0.441-0.166L66.034,34.713z"/></g><g><polygon fill="#472b29" points="67.875,29.5 66.625,30 68.625,35.375 70.75,38.875 68.75,39.5 67.75,37.625 67,37.75 68,40.25 69,40.375 73.625,38.625 73.375,38 71.5,38.625"/><path fill="#472b29" d="M69,40.625c-0.011,0-0.021,0-0.031-0.002l-1-0.125c-0.09-0.011-0.167-0.071-0.201-0.155l-1-2.5 c-0.027-0.07-0.022-0.149,0.015-0.215s0.102-0.112,0.177-0.124l0.75-0.125c0.106-0.02,0.212,0.034,0.262,0.129l0.902,1.692 l1.497-0.468l-1.959-3.227l-2.021-5.417c-0.047-0.127,0.016-0.269,0.142-0.319l1.25-0.5c0.062-0.024,0.132-0.024,0.191,0.002 c0.062,0.026,0.109,0.076,0.134,0.137l3.538,8.905l1.65-0.55c0.125-0.043,0.262,0.021,0.312,0.145l0.25,0.625 c0.024,0.062,0.023,0.132-0.004,0.193c-0.026,0.062-0.077,0.109-0.14,0.133l-4.625,1.75C69.061,40.62,69.03,40.625,69,40.625z M68.178,40.02l0.792,0.099l4.328-1.638l-0.067-0.17l-1.651,0.551c-0.127,0.042-0.263-0.021-0.312-0.145l-3.532-8.892 l-0.791,0.316l1.915,5.146l2.104,3.458c0.04,0.066,0.047,0.146,0.02,0.218c-0.026,0.072-0.085,0.127-0.159,0.15l-2,0.625 c-0.114,0.033-0.238-0.016-0.295-0.121l-0.915-1.716l-0.267,0.044L68.178,40.02z"/></g><g><path fill="#472b29" d="M72,34.625c0.625,0.5,2.375,3.75,2.375,3.75l2.5-0.875L76.5,37c0,0-1.25,0.5-2,0.75 C73.375,37,72.75,34.5,72,34.625z"/><path fill="#472b29" d="M74.375,38.625c-0.09,0-0.176-0.049-0.22-0.131c-0.694-1.289-1.882-3.33-2.312-3.673 c-0.077-0.062-0.11-0.163-0.086-0.258c0.025-0.096,0.104-0.167,0.201-0.184c0.548-0.093,0.937,0.581,1.411,1.437 c0.341,0.612,0.723,1.301,1.172,1.657c0.742-0.255,1.854-0.699,1.865-0.704c0.105-0.043,0.225-0.009,0.293,0.082l0.375,0.5 c0.048,0.063,0.062,0.146,0.039,0.223s-0.081,0.137-0.156,0.163l-2.5,0.875C74.431,38.621,74.402,38.625,74.375,38.625z M74.453,37.996c0.015,0.026,0.027,0.05,0.04,0.073l1.977-0.692l-0.055-0.074c-0.374,0.147-1.249,0.489-1.836,0.685 C74.538,38.001,74.495,38.003,74.453,37.996z"/></g><g><path fill="#472b29" d="M70.5,30.625l1,2.375c0,0,0.875-0.75,0.375-1.75C71.5,30.5,70.5,30.625,70.5,30.625z"/><path fill="#472b29" d="M71.5,33.25c-0.02,0-0.038-0.002-0.058-0.007c-0.077-0.018-0.142-0.073-0.173-0.146l-1-2.375 c-0.03-0.072-0.025-0.154,0.014-0.222s0.108-0.113,0.186-0.123c0.048-0.008,1.181-0.137,1.63,0.761 c0.465,0.929-0.082,1.748-0.436,2.052C71.617,33.229,71.559,33.25,71.5,33.25z M70.88,30.882l0.692,1.646 c0.168-0.26,0.323-0.678,0.079-1.167C71.485,31.029,71.143,30.917,70.88,30.882z"/></g><g><polygon fill="#fcc938" points="53.926,43.964 53.436,42.19 51.14,42.823 50.604,40.881 52.636,40.32 52.14,38.522 50.108,39.082 49.683,37.54 51.798,36.956 51.201,34.791 49.085,35.375 49.085,35.375 48.235,35.609 47.724,35.75 47.724,35.75 47.157,35.907 49.702,45.13 51.63,44.598 51.63,44.598"/><path fill="#472b29" d="M49.701,45.38c-0.043,0-0.085-0.011-0.123-0.033c-0.058-0.033-0.101-0.087-0.118-0.151 l-2.544-9.223c-0.018-0.064-0.009-0.132,0.023-0.19c0.033-0.058,0.088-0.1,0.151-0.118l4.044-1.115 c0.135-0.036,0.271,0.042,0.308,0.175l0.598,2.165c0.018,0.064,0.009,0.132-0.023,0.19c-0.033,0.058-0.087,0.1-0.151,0.118 l-1.875,0.517l0.293,1.06l1.79-0.494c0.136-0.037,0.27,0.042,0.308,0.175l0.496,1.798c0.036,0.133-0.042,0.271-0.175,0.308 l-1.79,0.494l0.403,1.46l2.054-0.567c0.137-0.035,0.27,0.042,0.308,0.175l0.49,1.774c0.018,0.064,0.009,0.132-0.023,0.19 c-0.033,0.058-0.087,0.1-0.151,0.118l-4.225,1.166C49.746,45.377,49.724,45.38,49.701,45.38z M47.465,36.082l2.411,8.741 l3.742-1.032l-0.357-1.292l-2.054,0.567c-0.137,0.036-0.271-0.042-0.308-0.175l-0.536-1.942c-0.018-0.064-0.009-0.132,0.023-0.19 c0.033-0.058,0.087-0.1,0.151-0.118l1.79-0.494l-0.363-1.316l-1.79,0.494c-0.137,0.036-0.271-0.042-0.308-0.175l-0.426-1.542 c-0.018-0.064-0.009-0.132,0.023-0.19c0.033-0.058,0.087-0.1,0.151-0.118l1.875-0.517l-0.465-1.683L47.465,36.082z"/></g></g><g><path fill="#fdfcef" d="M38.5,83h-3.125v-0.5c-1.533,0-4.023,0-5.375,0c-2.485,0-4.5-2.015-4.5-4.5 c0-2.333,1.782-4.229,4.055-4.455C29.533,73.364,29.5,73.187,29.5,73c0-2.485,2.015-4.5,4.5-4.5c1.438,0,2.703,0.686,3.527,1.736 C37.667,67.6,39.829,65.5,42.5,65.5c2.761,0,5,2.239,5,5c0,0.446-0.077,0.87-0.187,1.282C47.955,71.005,48.914,70.5,50,70.5 c1.781,0,3.234,1.335,3.455,3.055C53.636,73.533,53.813,73.5,54,73.5c2.485,0,4.5,2.015,4.5,4.5s-2.015,4.5-4.5,4.5s-9.5,0-9.5,0 h-6V83z"/><path fill="#472b29" d="M42.5,65c3.033,0,5.5,2.467,5.5,5.5c0,0.016,0,0.031,0,0.047C48.602,70.192,49.29,70,50,70 c1.831,0,3.411,1.261,3.858,3.005C53.905,73.002,53.952,73,54,73c2.757,0,5,2.243,5,5c0,2.757-2.243,5-5,5H38.5 c-0.276,0-0.5-0.224-0.5-0.5s0.224-0.5,0.5-0.5H54c2.206,0,4-1.794,4-4s-1.794-4-4-4c-0.117,0-0.23,0.017-0.343,0.032l-0.141,0.019 c-0.021,0.003-0.041,0.004-0.062,0.004c-0.246,0-0.462-0.185-0.495-0.437C52.768,72.125,51.496,71,50,71 c-0.885,0-1.723,0.401-2.301,1.1c-0.098,0.118-0.241,0.182-0.386,0.182c-0.078,0-0.156-0.018-0.228-0.056 c-0.209-0.107-0.314-0.346-0.254-0.573C46.946,71.218,47,70.852,47,70.5c0-2.481-2.019-4.5-4.5-4.5 c-2.381,0-4.347,1.872-4.474,4.263c-0.011,0.208-0.15,0.387-0.349,0.45c-0.05,0.016-0.101,0.024-0.152,0.024 c-0.15,0-0.296-0.069-0.392-0.192C36.362,69.563,35.221,69,34,69c-2.206,0-4,1.794-4,4c0,0.117,0.017,0.23,0.032,0.343l0.019,0.141 c0.016,0.134-0.022,0.268-0.106,0.373c-0.084,0.105-0.207,0.172-0.34,0.185C27.549,74.247,26,75.949,26,78c0,2.206,1.794,4,4,4h5.5 c0.276,0,0.5,0.224,0.5,0.5S35.776,83,35.5,83H30c-2.757,0-5-2.243-5-5c0-2.397,1.689-4.413,4.003-4.877 C29.001,73.082,29,73.041,29,73c0-2.757,2.243-5,5-5c1.176,0,2.293,0.416,3.183,1.164C37.781,66.76,39.945,65,42.5,65L42.5,65z"/><path fill="#472b29" d="M44,72c-0.256,0-0.517,0.04-0.819,0.126c-0.133,0.038-0.21,0.176-0.172,0.309 c0.032,0.109,0.13,0.182,0.239,0.182c0.023,0,0.047-0.003,0.07-0.01C43.575,72.534,43.792,72.5,44,72.5 c1.288,0,2.377,1.012,2.481,2.305c0.007,0.095,0.067,0.177,0.155,0.212c0.03,0.013,0.061,0.019,0.093,0.019 c0.059,0,0.118-0.022,0.165-0.063c0.346-0.305,0.784-0.473,1.231-0.473c1.034,0,1.875,0.841,1.875,1.875 c0,0.08,0.038,0.162,0.102,0.208c0.046,0.034,0.101,0.054,0.156,0.054c0.022,0,0.045-0.003,0.067-0.01 c0.268-0.085,0.509-0.127,0.738-0.127c1.268,0,2.33,0.997,2.419,2.268C53.491,78.899,53.601,79,53.731,79c0.006,0,0.012,0,0.018,0 c0.137-0.01,0.241-0.13,0.232-0.268C53.874,77.2,52.592,76,51.063,76c-0.189,0-0.382,0.022-0.585,0.068 C50.323,74.897,49.327,74,48.125,74c-0.426,0-0.845,0.119-1.212,0.341C46.609,72.999,45.403,72,44,72L44,72z M30.117,73.5 c-0.139,0-0.275,0.016-0.409,0.034c-0.137,0.018-0.233,0.144-0.214,0.281c0.017,0.125,0.125,0.217,0.246,0.217 c0.012,0,0.023-0.001,0.035-0.003C29.887,74.014,30,74,30.117,74c1.104,0,2.088,0.748,2.393,1.818 C32.541,75.928,32.641,76,32.75,76c0.022,0,0.045-0.003,0.069-0.009c0.133-0.038,0.21-0.176,0.172-0.309 C32.625,74.397,31.443,73.5,30.117,73.5L30.117,73.5z"/></g></svg>